999
dxfrw 0.5.10
0
SECTION
  2
HEADER
9
$ACADVER
  1
AC1021
  9
$MEASUREMENT
  70
  1
  9
$INSUNITS
  70
  4
9
$HANDSEED
  5
20000
0
ENDSEC
 0
SECTION
2
CLASSES
0
ENDSEC
 0
SECTION
 2
TABLES
0
TABLE
2
VPORT
5
8
330
0
100
AcDbSymbolTable
70
1
0
VPORT
5
31
330
2
100
AcDbSymbolTableRecord
100
AcDbViewportTableRecord
2
*ACTIVE
70
0
10
0
20
0
11
1
21
1
12
209.475294253
22
86.0026335861
13
0
23
0
14
10
24
10
15
10
25
10
16
0
26
0
36
1
17
0
27
0
37
0
40
319.744231092
41
2.12946428571
42
50
43
0
44
0
50
0
51
0
71
0
72
100
73
1
74
3
75
0
76
0
77
0
78
0
281
0
65
1
110
0
120
0
130
0
111
1
121
0
131
0
112
0
122
1
132
0
79
0
146
0
348
10020
60
7
61
5
292
1
282
1
141
0
142
0
63
250
421
3358443
0
ENDTAB
0
TABLE
2
LTYPE
5
5
330
0
100
AcDbSymbolTable
70
4
0
LTYPE
5
14
330
5
100
AcDbSymbolTableRecord
100
AcDbLinetypeTableRecord
2
ByBlock
70
0
3

72
65
73
0
40
0
0
LTYPE
5
15
330
5
100
AcDbSymbolTableRecord
100
AcDbLinetypeTableRecord
2
ByLayer
70
0
3
 
72
65
73
0
40
0
0
LTYPE
5
16
330
5
100
AcDbSymbolTableRecord
100
AcDbLinetypeTableRecord
2
Continuous
70
0
3
Solid line
72
65
73
0
40
0.0
0
LTYPE
5
 0000009d
100
AcDbSymbolTableRecord
100
AcDbLinetypeTableRecord
2
DOT
70
0
3
Dot . . . . . . . . . . . . . . . . . . . . . .
72
65
73
2
40
 3.0
49
 1.0
74
 0
49
 0.0
74
 0
0
LTYPE
5
 0000009e
100
AcDbSymbolTableRecord
100
AcDbLinetypeTableRecord
2
DASHED
70
0
3
Dashed __ __ __ __ __ __ __ __ __ __ __ __ __ _
72
65
73
2
40
1.0
49
 0.55
74
0
49
-0.45
74
0
0
ENDTAB
0
TABLE
2
LAYER
5
10
330
0
100
AcDbSymbolTable
70
1
0
LAYER
5
 0000009f
330
 2
100
AcDbSymbolTableRecord
100
AcDbLayerTableRecord
2
0
70
0
62
7
6
CONTINUOUS
370
 -3.0
390
F
0
LAYER
5
 000000a0
330
 2
100
AcDbSymbolTableRecord
100
AcDbLayerTableRecord
2
contour007
70
0
62
7
6
CONTINUOUS
370
 0.1
390
F
0
LAYER
5
 000000a1
330
 2
100
AcDbSymbolTableRecord
100
AcDbLayerTableRecord
2
engraving255
70
0
62
255
6
CONTINUOUS
370
 0.1
390
F
0
LAYER
5
 000000a2
330
 2
100
AcDbSymbolTableRecord
100
AcDbLayerTableRecord
2
reference_cross001
70
0
62
1
6
CONTINUOUS
370
 0.1
390
F
0
LAYER
5
 000000a3
330
 2
100
AcDbSymbolTableRecord
100
AcDbLayerTableRecord
2
reference_cross092
70
0
62
92
6
CONTINUOUS
370
 0.1
390
F
0
LAYER
5
 000000a4
330
 2
100
AcDbSymbolTableRecord
100
AcDbLayerTableRecord
2
reference_cross251
70
0
62
251
6
CONTINUOUS
370
 0.1
390
F
0
ENDTAB
0
TABLE
2
STYLE
5
3
330
0
100
AcDbSymbolTable
70
3
0
STYLE
5
45
330
2
100
AcDbSymbolTableRecord
100
AcDbTextStyleTableRecord
2
Standard
70
0
40
0
41
1
50
0
71
0
42
1
3
txt
4
 
0
ENDTAB
0
TABLE
2
VIEW
5
6
330
0
100
AcDbSymbolTable
70
0
0
ENDTAB
0
TABLE
2
UCS
5
7
330
0
100
AcDbSymbolTable
70
0
0
ENDTAB
0
TABLE
2
APPID
5
9
330
0
100
AcDbSymbolTable
70
1
0
APPID
5
12
330
9
100
AcDbSymbolTableRecord
100
AcDbRegAppTableRecord
2
ACAD
70
0
0
ENDTAB
0
TABLE
2
DIMSTYLE
5
A
330
0
100
AcDbSymbolTable
70
1
100
AcDbDimStyleTable
71
1
0
DIMSTYLE
105
46
330
A
100
AcDbSymbolTableRecord
100
AcDbDimStyleTableRecord
2
Standard
70
0
40
1
41
0.18
42
0.0625
43
0.38
44
0.18
45
0
46
0
47
0
48
0
140
0.18
141
0.09
142
0
143
25.4
144
1
145
0
146
1
147
0.09
148
0
71
0
72
0
73
0
74
1
75
0
76
0
77
0
78
0
79
0
170
0
171
2
172
0
173
0
174
0
175
0
176
0
177
0
178
0
179
0
271
4
272
4
273
2
274
2
275
0
276
0
277
2
278
46
279
0
280
0
281
0
282
0
283
1
284
0
285
0
286
0
288
0
289
3
340
Standard
341
 
371
-2
372
-2
0
ENDTAB
0
TABLE
2
BLOCK_RECORD
5
1
330
0
100
AcDbSymbolTable
70
2
0
BLOCK_RECORD
5
1F
330
1
100
AcDbSymbolTableRecord
100
AcDbBlockTableRecord
2
*Model_Space
70
0
280
1
281
0
0
BLOCK_RECORD
5
1E
330
1
100
AcDbSymbolTableRecord
100
AcDbBlockTableRecord
2
*Paper_Space
70
0
280
1
281
0
0
ENDTAB
0
ENDSEC
0
SECTION
2
BLOCKS
0
BLOCK
5
20
330
1F
100
AcDbEntity
8
0
100
AcDbBlockBegin
2
*Model_Space
70
0
10
0
20
0
30
0
3
*Model_Space
1
 
0
ENDBLK
5
21
330
1F
100
AcDbEntity
8
0
100
AcDbBlockEnd
0
BLOCK
5
1C
330
1B
100
AcDbEntity
8
0
100
AcDbBlockBegin
2
*Paper_Space
70
0
10
0
20
0
30
0
3
*Paper_Space
1
 
0
ENDBLK
5
1D
330
1E
100
AcDbEntity
8
0
100
AcDbBlockEnd
0
ENDSEC
0
SECTION
  2
ENTITIES
0
ARC
  5
000000a5
 39
 0.100 
 100
AcDbEntity
8
contour007
 6
CONTINUOUS
100
AcDbCircle
 10
172.000000000000
 20
72.000000000000
 30
 0
 40
8.000000000000
100
AcDbArc
 50
0.000000000000
 51
90.000000000000
0
LINE
  5
000000a6
 39
 0.100 
 100
AcDbEntity
8
contour007
 6
CONTINUOUS
 100
AcDbLine
 10
180.000000000000
 20
8.000000000000
 30
 0.0
 11
180.000000000000
 21
72.000000000000
 31
0.0
0
ARC
  5
000000a7
 39
 0.100 
 100
AcDbEntity
8
contour007
 6
CONTINUOUS
100
AcDbCircle
 10
172.000000000000
 20
8.000000000000
 30
 0
 40
8.000000000000
100
AcDbArc
 50
-90.000000000000
 51
0.000000000000
0
LINE
  5
000000a8
 39
 0.100 
 100
AcDbEntity
8
contour007
 6
CONTINUOUS
 100
AcDbLine
 10
8.000000000000
 20
0.000000000000
 30
 0.0
 11
172.000000000000
 21
0.000000000000
 31
0.0
0
ARC
  5
000000a9
 39
 0.100 
 100
AcDbEntity
8
contour007
 6
CONTINUOUS
100
AcDbCircle
 10
8.000000000000
 20
8.000000000000
 30
 0
 40
8.000000000000
100
AcDbArc
 50
180.000000000000
 51
270.000000000000
0
LINE
  5
000000aa
 39
 0.100 
 100
AcDbEntity
8
contour007
 6
CONTINUOUS
 100
AcDbLine
 10
0.000000000000
 20
72.000000000000
 30
 0.0
 11
0.000000000000
 21
8.000000000000
 31
0.0
0
ARC
  5
000000ab
 39
 0.100 
 100
AcDbEntity
8
contour007
 6
CONTINUOUS
100
AcDbCircle
 10
8.000000000000
 20
72.000000000000
 30
 0
 40
8.000000000000
100
AcDbArc
 50
90.000000000000
 51
180.000000000000
0
LINE
  5
000000ac
 39
 0.100 
 100
AcDbEntity
8
contour007
 6
CONTINUOUS
 100
AcDbLine
 10
172.000000000000
 20
80.000000000000
 30
 0.0
 11
8.000000000000
 21
80.000000000000
 31
0.0
0
LINE
  5
000000ad
 39
 0.100 
 100
AcDbEntity
8
engraving255
 6
CONTINUOUS
 100
AcDbLine
 10
88.041000000000
 20
55.400333333333
 30
 0.0
 11
88.041000000000
 21
55.133666666667
 31
0.0
0
ARC
  5
000000ae
 39
 0.100 
 100
AcDbEntity
8
engraving255
 6
CONTINUOUS
100
AcDbCircle
 10
88.707666666667
 20
55.400333333333
 30
 0
 40
0.666666666667
100
AcDbArc
 50
0.000000000000
 51
180.000000000000
0
LINE
  5
000000af
 39
 0.100 
 100
AcDbEntity
8
engraving255
 6
CONTINUOUS
 100
AcDbLine
 10
89.374333333333
 20
55.133666666667
 30
 0.0
 11
89.374333333333
 21
55.400333333333
 31
0.0
0
ARC
  5
000000b0
 39
 0.100 
 100
AcDbEntity
8
engraving255
 6
CONTINUOUS
100
AcDbCircle
 10
88.707666666667
 20
55.133666666667
 30
 0
 40
0.666666666667
100
AcDbArc
 50
-180.000000000000
 51
0.000000000000
0
LINE
  5
000000b1
 39
 0.100 
 100
AcDbEntity
8
engraving255
 6
CONTINUOUS
 100
AcDbLine
 10
90.655000000000
 20
56.067000000000
 30
 0.0
 11
89.988333333333
 21
56.067000000000
 31
0.0
0
ARC
  5
000000b2
 39
 0.100 
 100
AcDbEntity
8
engraving255
 6
CONTINUOUS
100
AcDbCircle
 10
90.652890358045
 20
56.469109641955
 30
 0
 40
0.397895950739
100
AcDbArc
 50
89.696216695819
 51
180.303783304182
0
LINE
  5
000000b3
 39
 0.100 
 100
AcDbEntity
8
engraving255
 6
CONTINUOUS
 100
AcDbLine
 10
90.255000000000
 20
54.467000000000
 30
 0.0
 11
90.255000000000
 21
56.467000000000
 31
0.0
0
LINE
  5
000000b4
 39
 0.100 
 100
AcDbEntity
8
engraving255
 6
CONTINUOUS
 100
AcDbLine
 10
91.935000000000
 20
56.067000000000
 30
 0.0
 11
91.268333333333
 21
56.067000000000
 31
0.0
0
ARC
  5
000000b5
 39
 0.100 
 100
AcDbEntity
8
engraving255
 6
CONTINUOUS
100
AcDbCircle
 10
91.932890358045
 20
56.469109641955
 30
 0
 40
0.397895950739
100
AcDbArc
 50
89.696216695819
 51
180.303783304182
0
LINE
  5
000000b6
 39
 0.100 
 100
AcDbEntity
8
engraving255
 6
CONTINUOUS
 100
AcDbLine
 10
91.535000000000
 20
54.467000000000
 30
 0.0
 11
91.535000000000
 21
56.467000000000
 31
0.0
0
LWPOLYLINE
  5
000000b7
 39
 0.100 
 100
AcDbEntity
8
engraving255
 6
CONTINUOUS
100
AcDbPolyline
 90
3
 70
8
 10
100.589970575927
 20
53.563350269190
 10
101.318517457945
 20
53.758563817875
 10
100.118517457945
 20
51.680102848792
0
LINE
  5
000000b8
 39
 0.100 
 100
AcDbEntity
8
engraving255
 6
CONTINUOUS
 100
AcDbLine
 10
108.880187774804
 20
46.127781510214
 30
 0.0
 11
108.684717720966
 21
46.199678908153
 31
0.0
0
ARC
  5
000000b9
 39
 0.100 
 100
AcDbEntity
8
engraving255
 6
CONTINUOUS
100
AcDbCircle
 10
108.662477476475
 20
45.502869388438
 30
 0
 40
0.661749902865
100
AcDbArc
 50
-100.792406106298
 51
70.792406106298
0
LWPOLYLINE
  5
000000ba
 39
 0.100 
 100
AcDbEntity
8
engraving255
 6
CONTINUOUS
100
AcDbPolyline
 90
3
 70
8
 10
108.538564064606
 20
44.852824466682
 10
106.800769515459
 20
45.142772918920
 10
107.467436182125
 20
43.988072380541
0
ARC
  5
000000bb
 39
 0.100 
 100
AcDbEntity
8
engraving255
 6
CONTINUOUS
100
AcDbCircle
 10
111.540137173643
 20
34.642424782429
 30
 0
 40
0.700211107211
100
AcDbArc
 50
0.374376412821
 51
67.005758639136
0
ARC
  5
000000bc
 39
 0.100 
 100
AcDbEntity
8
engraving255
 6
CONTINUOUS
100
AcDbCircle
 10
111.613666666667
 20
34.647000000000
 30
 0
 40
0.626666666667
100
AcDbArc
 50
-180.000000000000
 51
0.000000000000
0
ARC
  5
000000bd
 39
 0.100 
 100
AcDbEntity
8
engraving255
 6
CONTINUOUS
100
AcDbCircle
 10
110.360333333333
 20
34.647000000000
 30
 0
 40
0.626666666667
100
AcDbArc
 50
-180.000000000000
 51
0.000000000000
0
ARC
  5
000000be
 39
 0.100 
 100
AcDbEntity
8
engraving255
 6
CONTINUOUS
100
AcDbCircle
 10
110.475145746488
 20
34.643359425660
 30
 0
 40
0.741488017161
100
AcDbArc
 50
119.768438894359
 51
179.718686778586
0
LWPOLYLINE
  5
000000bf
 39
 0.100 
 100
AcDbEntity
8
engraving255
 6
CONTINUOUS
100
AcDbPolyline
 90
6
 70
8
 10
109.145217987008
 20
23.450935627379
 10
107.813196724931
 20
25.143779198821
 10
107.146509905039
 20
23.989090296146
 10
107.279847269018
 20
24.220028076681
 10
107.626253939820
 20
24.020022030714
 10
106.933440598215
 20
24.420034122648
0
LWPOLYLINE
  5
000000c0
 39
 0.100 
 100
AcDbEntity
8
engraving255
 6
CONTINUOUS
100
AcDbPolyline
 90
3
 70
8
 10
100.613438804668
 20
15.168936182125
 10
101.652669289210
 20
15.768936182125
 10
101.092669289210
 20
16.738884634364
0
ARC
  5
000000c1
 39
 0.100 
 100
AcDbEntity
8
engraving255
 6
CONTINUOUS
100
AcDbCircle
 10
100.247769830744
 20
17.086042330101
 30
 0
 40
0.913440507437
100
AcDbArc
 50
294.857503260513
 51
337.662906156110
0
ARC
  5
000000c2
 39
 0.100 
 100
AcDbEntity
8
engraving255
 6
CONTINUOUS
100
AcDbCircle
 10
100.310679464403
 20
16.958948852168
 30
 0
 40
0.771685253738
100
AcDbArc
 50
165.755257466132
 51
294.586049357568
0
ARC
  5
000000c3
 39
 0.100 
 100
AcDbEntity
8
engraving255
 6
CONTINUOUS
100
AcDbCircle
 10
100.260154304283
 20
16.969074513617
 30
 0
 40
0.720226760047
100
AcDbArc
 50
58.566076208517
 51
165.546980170302
0
ARC
  5
000000c4
 39
 0.100 
 100
AcDbEntity
8
engraving255
 6
CONTINUOUS
100
AcDbCircle
 10
89.985666666667
 20
14.093666666667
 30
 0
 40
0.693333333333
100
AcDbArc
 50
-180.000000000000
 51
0.000000000000
0
LINE
  5
000000c5
 39
 0.100 
 100
AcDbEntity
8
engraving255
 6
CONTINUOUS
 100
AcDbLine
 10
89.292333333333
 20
14.227000000000
 30
 0.0
 11
89.292333333333
 21
14.093666666667
 31
0.0
0
ARC
  5
000000c6
 39
 0.100 
 100
AcDbEntity
8
engraving255
 6
CONTINUOUS
100
AcDbCircle
 10
89.985666666667
 20
14.227000000000
 30
 0
 40
0.693333333333
100
AcDbArc
 50
0.000000000000
 51
180.000000000000
0
LINE
  5
000000c7
 39
 0.100 
 100
AcDbEntity
8
engraving255
 6
CONTINUOUS
 100
AcDbLine
 10
90.679000000000
 20
13.187000000000
 30
 0.0
 11
90.679000000000
 21
14.227000000000
 31
0.0
0
ARC
  5
000000c8
 39
 0.100 
 100
AcDbEntity
8
engraving255
 6
CONTINUOUS
100
AcDbCircle
 10
89.940392296893
 20
13.157534700604
 30
 0
 40
0.739195199496
100
AcDbArc
 50
-134.133494378096
 51
2.284490888253
0
LWPOLYLINE
  5
000000c9
 39
 0.100 
 100
AcDbEntity
8
engraving255
 6
CONTINUOUS
100
AcDbPolyline
 90
4
 70
8
 10
79.663772918920
 20
15.455179676972
 10
79.463772918920
 20
15.108769515459
 10
78.309072380541
 20
15.775436182125
 10
80.432832811245
 20
17.320563817875
0
ARC
  5
000000ca
 39
 0.100 
 100
AcDbEntity
8
engraving255
 6
CONTINUOUS
100
AcDbCircle
 10
72.285812451339
 20
24.448280213604
 30
 0
 40
0.693333333333
100
AcDbArc
 50
29.999000000000
 51
209.999000000000
0
ARC
  5
000000cb
 39
 0.100 
 100
AcDbEntity
8
engraving255
 6
CONTINUOUS
100
AcDbCircle
 10
72.285812451339
 20
24.448280213604
 30
 0
 40
0.693333333333
100
AcDbArc
 50
-150.001000000000
 51
29.999000000000
0
ARC
  5
000000cc
 39
 0.100 
 100
AcDbEntity
8
engraving255
 6
CONTINUOUS
100
AcDbCircle
 10
71.200383008031
 20
23.821632491159
 30
 0
 40
0.560000000000
100
AcDbArc
 50
29.999000000000
 51
209.998997843896
0
ARC
  5
000000cd
 39
 0.100 
 100
AcDbEntity
8
engraving255
 6
CONTINUOUS
100
AcDbCircle
 10
71.200383008031
 20
23.821632491159
 30
 0
 40
0.560000000000
100
AcDbArc
 50
209.999000000000
 51
389.998997843896
0
ARC
  5
000000ce
 39
 0.100 
 100
AcDbEntity
8
engraving255
 6
CONTINUOUS
100
AcDbCircle
 10
68.587000000000
 20
34.667666666667
 30
 0
 40
0.666666666667
100
AcDbArc
 50
-90.000000000000
 51
90.000000000000
0
LINE
  5
000000cf
 39
 0.100 
 100
AcDbEntity
8
engraving255
 6
CONTINUOUS
 100
AcDbLine
 10
68.400333333333
 20
34.001000000000
 30
 0.0
 11
68.587000000000
 21
34.001000000000
 31
0.0
0
ARC
  5
000000d0
 39
 0.100 
 100
AcDbEntity
8
engraving255
 6
CONTINUOUS
100
AcDbCircle
 10
68.400333333333
 20
34.667666666667
 30
 0
 40
0.666666666667
100
AcDbArc
 50
90.000000000000
 51
270.000000000000
0
LINE
  5
000000d1
 39
 0.100 
 100
AcDbEntity
8
engraving255
 6
CONTINUOUS
 100
AcDbLine
 10
69.493666666667
 20
35.334333333333
 30
 0.0
 11
68.400333333333
 21
35.334333333333
 31
0.0
0
ARC
  5
000000d2
 39
 0.100 
 100
AcDbEntity
8
engraving255
 6
CONTINUOUS
100
AcDbCircle
 10
69.533793017152
 20
34.622392296893
 30
 0
 40
0.713070938526
100
AcDbArc
 50
-43.192099155074
 51
93.225886111275
0
LWPOLYLINE
  5
000000d3
 39
 0.100 
 100
AcDbEntity
8
engraving255
 6
CONTINUOUS
100
AcDbPolyline
 90
3
 70
8
 10
72.470208827368
 20
43.926129521113
 10
70.391768802553
 20
45.126165796918
 10
70.831782103681
 20
45.888260472683
0
ARC
  5
000000d4
 39
 0.100 
 100
AcDbEntity
8
engraving255
 6
CONTINUOUS
100
AcDbCircle
 10
71.351392109885
 20
45.588251403732
 30
 0
 40
0.600000000000
100
AcDbArc
 50
-30.000999999999
 51
149.999000000001
0
LINE
  5
000000d5
 39
 0.100 
 100
AcDbEntity
8
engraving255
 6
CONTINUOUS
 100
AcDbLine
 10
71.430988814960
 20
44.526147659015
 30
 0.0
 11
71.871002116089
 21
45.288242334781
 31
0.0
0
LINE
  5
000000d6
 39
 0.100 
 100
AcDbEntity
8
engraving255
 6
CONTINUOUS
 100
AcDbLine
 10
146.041000000000
 20
55.400333333333
 30
 0.0
 11
146.041000000000
 21
55.133666666667
 31
0.0
0
ARC
  5
000000d7
 39
 0.100 
 100
AcDbEntity
8
engraving255
 6
CONTINUOUS
100
AcDbCircle
 10
146.707666666667
 20
55.400333333333
 30
 0
 40
0.666666666667
100
AcDbArc
 50
0.000000000000
 51
180.000000000000
0
LINE
  5
000000d8
 39
 0.100 
 100
AcDbEntity
8
engraving255
 6
CONTINUOUS
 100
AcDbLine
 10
147.374333333333
 20
55.133666666667
 30
 0.0
 11
147.374333333333
 21
55.400333333333
 31
0.0
0
ARC
  5
000000d9
 39
 0.100 
 100
AcDbEntity
8
engraving255
 6
CONTINUOUS
100
AcDbCircle
 10
146.707666666667
 20
55.133666666667
 30
 0
 40
0.666666666667
100
AcDbArc
 50
-180.000000000000
 51
0.000000000000
0
LINE
  5
000000da
 39
 0.100 
 100
AcDbEntity
8
engraving255
 6
CONTINUOUS
 100
AcDbLine
 10
148.655000000000
 20
56.067000000000
 30
 0.0
 11
147.988333333333
 21
56.067000000000
 31
0.0
0
ARC
  5
000000db
 39
 0.100 
 100
AcDbEntity
8
engraving255
 6
CONTINUOUS
100
AcDbCircle
 10
148.652890358045
 20
56.469109641955
 30
 0
 40
0.397895950739
100
AcDbArc
 50
89.696216695817
 51
180.303783304180
0
LINE
  5
000000dc
 39
 0.100 
 100
AcDbEntity
8
engraving255
 6
CONTINUOUS
 100
AcDbLine
 10
148.255000000000
 20
54.467000000000
 30
 0.0
 11
148.255000000000
 21
56.467000000000
 31
0.0
0
LINE
  5
000000dd
 39
 0.100 
 100
AcDbEntity
8
engraving255
 6
CONTINUOUS
 100
AcDbLine
 10
149.935000000000
 20
56.067000000000
 30
 0.0
 11
149.268333333333
 21
56.067000000000
 31
0.0
0
ARC
  5
000000de
 39
 0.100 
 100
AcDbEntity
8
engraving255
 6
CONTINUOUS
100
AcDbCircle
 10
149.932890358045
 20
56.469109641955
 30
 0
 40
0.397895950739
100
AcDbArc
 50
89.696216695821
 51
180.303783304184
0
LINE
  5
000000df
 39
 0.100 
 100
AcDbEntity
8
engraving255
 6
CONTINUOUS
 100
AcDbLine
 10
149.535000000000
 20
54.467000000000
 30
 0.0
 11
149.535000000000
 21
56.467000000000
 31
0.0
0
LWPOLYLINE
  5
000000e0
 39
 0.100 
 100
AcDbEntity
8
engraving255
 6
CONTINUOUS
100
AcDbPolyline
 90
3
 70
8
 10
158.589970575927
 20
53.563350269190
 10
159.318517457945
 20
53.758563817875
 10
158.118517457945
 20
51.680102848792
0
LINE
  5
000000e1
 39
 0.100 
 100
AcDbEntity
8
engraving255
 6
CONTINUOUS
 100
AcDbLine
 10
166.880187774804
 20
46.127781510214
 30
 0.0
 11
166.684717720966
 21
46.199678908153
 31
0.0
0
ARC
  5
000000e2
 39
 0.100 
 100
AcDbEntity
8
engraving255
 6
CONTINUOUS
100
AcDbCircle
 10
166.662477476475
 20
45.502869388438
 30
 0
 40
0.661749902865
100
AcDbArc
 50
-100.792406106298
 51
70.792406106298
0
LWPOLYLINE
  5
000000e3
 39
 0.100 
 100
AcDbEntity
8
engraving255
 6
CONTINUOUS
100
AcDbPolyline
 90
3
 70
8
 10
166.538564064606
 20
44.852824466682
 10
164.800769515459
 20
45.142772918920
 10
165.467436182125
 20
43.988072380541
0
ARC
  5
000000e4
 39
 0.100 
 100
AcDbEntity
8
engraving255
 6
CONTINUOUS
100
AcDbCircle
 10
169.540137173643
 20
34.642424782429
 30
 0
 40
0.700211107211
100
AcDbArc
 50
0.374376412824
 51
67.005758639138
0
ARC
  5
000000e5
 39
 0.100 
 100
AcDbEntity
8
engraving255
 6
CONTINUOUS
100
AcDbCircle
 10
169.613666666667
 20
34.647000000000
 30
 0
 40
0.626666666667
100
AcDbArc
 50
-180.000000000000
 51
0.000000000000
0
ARC
  5
000000e6
 39
 0.100 
 100
AcDbEntity
8
engraving255
 6
CONTINUOUS
100
AcDbCircle
 10
168.360333333333
 20
34.647000000000
 30
 0
 40
0.626666666667
100
AcDbArc
 50
-180.000000000000
 51
0.000000000000
0
ARC
  5
000000e7
 39
 0.100 
 100
AcDbEntity
8
engraving255
 6
CONTINUOUS
100
AcDbCircle
 10
168.475145746488
 20
34.643359425660
 30
 0
 40
0.741488017161
100
AcDbArc
 50
119.768438894359
 51
179.718686778586
0
LWPOLYLINE
  5
000000e8
 39
 0.100 
 100
AcDbEntity
8
engraving255
 6
CONTINUOUS
100
AcDbPolyline
 90
6
 70
8
 10
167.145217987008
 20
23.450935627379
 10
165.813196724931
 20
25.143779198821
 10
165.146509905039
 20
23.989090296146
 10
165.279847269018
 20
24.220028076681
 10
165.626253939820
 20
24.020022030714
 10
164.933440598215
 20
24.420034122648
0
LWPOLYLINE
  5
000000e9
 39
 0.100 
 100
AcDbEntity
8
engraving255
 6
CONTINUOUS
100
AcDbPolyline
 90
3
 70
8
 10
158.613438804668
 20
15.168936182125
 10
159.652669289210
 20
15.768936182125
 10
159.092669289210
 20
16.738884634364
0
ARC
  5
000000ea
 39
 0.100 
 100
AcDbEntity
8
engraving255
 6
CONTINUOUS
100
AcDbCircle
 10
158.247769830744
 20
17.086042330101
 30
 0
 40
0.913440507437
100
AcDbArc
 50
294.857503260513
 51
337.662906156110
0
ARC
  5
000000eb
 39
 0.100 
 100
AcDbEntity
8
engraving255
 6
CONTINUOUS
100
AcDbCircle
 10
158.310679464403
 20
16.958948852168
 30
 0
 40
0.771685253738
100
AcDbArc
 50
165.755257466132
 51
294.586049357569
0
ARC
  5
000000ec
 39
 0.100 
 100
AcDbEntity
8
engraving255
 6
CONTINUOUS
100
AcDbCircle
 10
158.260154304282
 20
16.969074513617
 30
 0
 40
0.720226760047
100
AcDbArc
 50
58.566076208517
 51
165.546980170302
0
ARC
  5
000000ed
 39
 0.100 
 100
AcDbEntity
8
engraving255
 6
CONTINUOUS
100
AcDbCircle
 10
147.985666666667
 20
14.093666666667
 30
 0
 40
0.693333333333
100
AcDbArc
 50
-180.000000000000
 51
0.000000000000
0
LINE
  5
000000ee
 39
 0.100 
 100
AcDbEntity
8
engraving255
 6
CONTINUOUS
 100
AcDbLine
 10
147.292333333333
 20
14.227000000000
 30
 0.0
 11
147.292333333333
 21
14.093666666667
 31
0.0
0
ARC
  5
000000ef
 39
 0.100 
 100
AcDbEntity
8
engraving255
 6
CONTINUOUS
100
AcDbCircle
 10
147.985666666667
 20
14.227000000000
 30
 0
 40
0.693333333333
100
AcDbArc
 50
0.000000000000
 51
180.000000000000
0
LINE
  5
000000f0
 39
 0.100 
 100
AcDbEntity
8
engraving255
 6
CONTINUOUS
 100
AcDbLine
 10
148.679000000000
 20
13.187000000000
 30
 0.0
 11
148.679000000000
 21
14.227000000000
 31
0.0
0
ARC
  5
000000f1
 39
 0.100 
 100
AcDbEntity
8
engraving255
 6
CONTINUOUS
100
AcDbCircle
 10
147.940392296893
 20
13.157534700604
 30
 0
 40
0.739195199496
100
AcDbArc
 50
-134.133494378096
 51
2.284490888253
0
LWPOLYLINE
  5
000000f2
 39
 0.100 
 100
AcDbEntity
8
engraving255
 6
CONTINUOUS
100
AcDbPolyline
 90
4
 70
8
 10
137.663772918920
 20
15.455179676972
 10
137.463772918920
 20
15.108769515459
 10
136.309072380541
 20
15.775436182125
 10
138.432832811245
 20
17.320563817875
0
ARC
  5
000000f3
 39
 0.100 
 100
AcDbEntity
8
engraving255
 6
CONTINUOUS
100
AcDbCircle
 10
130.285812451339
 20
24.448280213604
 30
 0
 40
0.693333333333
100
AcDbArc
 50
29.999000000000
 51
209.999000000000
0
ARC
  5
000000f4
 39
 0.100 
 100
AcDbEntity
8
engraving255
 6
CONTINUOUS
100
AcDbCircle
 10
130.285812451339
 20
24.448280213604
 30
 0
 40
0.693333333333
100
AcDbArc
 50
-150.001000000000
 51
29.999000000000
0
ARC
  5
000000f5
 39
 0.100 
 100
AcDbEntity
8
engraving255
 6
CONTINUOUS
100
AcDbCircle
 10
129.200383008031
 20
23.821632491159
 30
 0
 40
0.560000000000
100
AcDbArc
 50
29.998999999999
 51
209.998997843895
0
ARC
  5
000000f6
 39
 0.100 
 100
AcDbEntity
8
engraving255
 6
CONTINUOUS
100
AcDbCircle
 10
129.200383008031
 20
23.821632491159
 30
 0
 40
0.560000000000
100
AcDbArc
 50
209.999000000000
 51
389.998997843896
0
ARC
  5
000000f7
 39
 0.100 
 100
AcDbEntity
8
engraving255
 6
CONTINUOUS
100
AcDbCircle
 10
126.587000000000
 20
34.667666666667
 30
 0
 40
0.666666666667
100
AcDbArc
 50
-90.000000000000
 51
90.000000000000
0
LINE
  5
000000f8
 39
 0.100 
 100
AcDbEntity
8
engraving255
 6
CONTINUOUS
 100
AcDbLine
 10
126.400333333333
 20
34.001000000000
 30
 0.0
 11
126.587000000000
 21
34.001000000000
 31
0.0
0
ARC
  5
000000f9
 39
 0.100 
 100
AcDbEntity
8
engraving255
 6
CONTINUOUS
100
AcDbCircle
 10
126.400333333333
 20
34.667666666667
 30
 0
 40
0.666666666667
100
AcDbArc
 50
90.000000000000
 51
270.000000000000
0
LINE
  5
000000fa
 39
 0.100 
 100
AcDbEntity
8
engraving255
 6
CONTINUOUS
 100
AcDbLine
 10
127.493666666667
 20
35.334333333333
 30
 0.0
 11
126.400333333333
 21
35.334333333333
 31
0.0
0
ARC
  5
000000fb
 39
 0.100 
 100
AcDbEntity
8
engraving255
 6
CONTINUOUS
100
AcDbCircle
 10
127.533793017152
 20
34.622392296893
 30
 0
 40
0.713070938526
100
AcDbArc
 50
-43.192099155074
 51
93.225886111275
0
LWPOLYLINE
  5
000000fc
 39
 0.100 
 100
AcDbEntity
8
engraving255
 6
CONTINUOUS
100
AcDbPolyline
 90
3
 70
8
 10
130.470208827368
 20
43.926129521113
 10
128.391768802553
 20
45.126165796918
 10
128.831782103681
 20
45.888260472683
0
ARC
  5
000000fd
 39
 0.100 
 100
AcDbEntity
8
engraving255
 6
CONTINUOUS
100
AcDbCircle
 10
129.351392109885
 20
45.588251403732
 30
 0
 40
0.600000000000
100
AcDbArc
 50
-30.000999999999
 51
149.999000000001
0
LINE
  5
000000fe
 39
 0.100 
 100
AcDbEntity
8
engraving255
 6
CONTINUOUS
 100
AcDbLine
 10
129.430988814960
 20
44.526147659015
 30
 0.0
 11
129.871002116089
 21
45.288242334781
 31
0.0
0
LINE
  5
000000ff
 39
 0.100 
 100
AcDbEntity
8
engraving255
 6
CONTINUOUS
 100
AcDbLine
 10
113.000000000000
 20
67.500000000000
 30
 0.0
 11
125.000000000000
 21
67.500000000000
 31
0.0
0
LINE
  5
00000100
 39
 0.100 
 100
AcDbEntity
8
engraving255
 6
CONTINUOUS
 100
AcDbLine
 10
29.000000000000
 20
67.604000000000
 30
 0.0
 11
35.000000000000
 21
67.604000000000
 31
0.0
0
LINE
  5
00000101
 39
 0.100 
 100
AcDbEntity
8
engraving255
 6
CONTINUOUS
 100
AcDbLine
 10
30.054000000000
 20
55.400333333333
 30
 0.0
 11
30.054000000000
 21
55.133666666667
 31
0.0
0
ARC
  5
00000102
 39
 0.100 
 100
AcDbEntity
8
engraving255
 6
CONTINUOUS
100
AcDbCircle
 10
30.720666666667
 20
55.400333333333
 30
 0
 40
0.666666666667
100
AcDbArc
 50
0.000000000000
 51
180.000000000000
0
LINE
  5
00000103
 39
 0.100 
 100
AcDbEntity
8
engraving255
 6
CONTINUOUS
 100
AcDbLine
 10
31.387333333333
 20
55.133666666667
 30
 0.0
 11
31.387333333333
 21
55.400333333333
 31
0.0
0
ARC
  5
00000104
 39
 0.100 
 100
AcDbEntity
8
engraving255
 6
CONTINUOUS
100
AcDbCircle
 10
30.720666666667
 20
55.133666666667
 30
 0
 40
0.666666666667
100
AcDbArc
 50
-180.000000000000
 51
0.000000000000
0
LINE
  5
00000105
 39
 0.100 
 100
AcDbEntity
8
engraving255
 6
CONTINUOUS
 100
AcDbLine
 10
32.668000000000
 20
56.067000000000
 30
 0.0
 11
32.001333333333
 21
56.067000000000
 31
0.0
0
ARC
  5
00000106
 39
 0.100 
 100
AcDbEntity
8
engraving255
 6
CONTINUOUS
100
AcDbCircle
 10
32.665890358045
 20
56.469109641955
 30
 0
 40
0.397895950739
100
AcDbArc
 50
89.696216695820
 51
180.303783304183
0
LINE
  5
00000107
 39
 0.100 
 100
AcDbEntity
8
engraving255
 6
CONTINUOUS
 100
AcDbLine
 10
32.268000000000
 20
54.467000000000
 30
 0.0
 11
32.268000000000
 21
56.467000000000
 31
0.0
0
LINE
  5
00000108
 39
 0.100 
 100
AcDbEntity
8
engraving255
 6
CONTINUOUS
 100
AcDbLine
 10
33.948000000000
 20
56.067000000000
 30
 0.0
 11
33.281333333333
 21
56.067000000000
 31
0.0
0
ARC
  5
00000109
 39
 0.100 
 100
AcDbEntity
8
engraving255
 6
CONTINUOUS
100
AcDbCircle
 10
33.945890358045
 20
56.469109641955
 30
 0
 40
0.397895950739
100
AcDbArc
 50
89.696216695820
 51
180.303783304183
0
LINE
  5
0000010a
 39
 0.100 
 100
AcDbEntity
8
engraving255
 6
CONTINUOUS
 100
AcDbLine
 10
33.548000000000
 20
54.467000000000
 30
 0.0
 11
33.548000000000
 21
56.467000000000
 31
0.0
0
LWPOLYLINE
  5
0000010b
 39
 0.100 
 100
AcDbEntity
8
engraving255
 6
CONTINUOUS
100
AcDbPolyline
 90
3
 70
8
 10
42.602970575927
 20
53.563350269190
 10
43.331517457945
 20
53.758563817875
 10
42.131517457945
 20
51.680102848792
0
LINE
  5
0000010c
 39
 0.100 
 100
AcDbEntity
8
engraving255
 6
CONTINUOUS
 100
AcDbLine
 10
50.893187774804
 20
46.127781510214
 30
 0.0
 11
50.697717720966
 21
46.199678908153
 31
0.0
0
ARC
  5
0000010d
 39
 0.100 
 100
AcDbEntity
8
engraving255
 6
CONTINUOUS
100
AcDbCircle
 10
50.675477476475
 20
45.502869388438
 30
 0
 40
0.661749902865
100
AcDbArc
 50
-100.792406106298
 51
70.792406106298
0
LWPOLYLINE
  5
0000010e
 39
 0.100 
 100
AcDbEntity
8
engraving255
 6
CONTINUOUS
100
AcDbPolyline
 90
3
 70
8
 10
50.551564064606
 20
44.852824466682
 10
48.813769515459
 20
45.142772918920
 10
49.480436182125
 20
43.988072380541
0
ARC
  5
0000010f
 39
 0.100 
 100
AcDbEntity
8
engraving255
 6
CONTINUOUS
100
AcDbCircle
 10
53.553137173643
 20
34.642424782429
 30
 0
 40
0.700211107211
100
AcDbArc
 50
0.374376412822
 51
67.005758639137
0
ARC
  5
00000110
 39
 0.100 
 100
AcDbEntity
8
engraving255
 6
CONTINUOUS
100
AcDbCircle
 10
53.626666666667
 20
34.647000000000
 30
 0
 40
0.626666666667
100
AcDbArc
 50
-180.000000000000
 51
0.000000000000
0
ARC
  5
00000111
 39
 0.100 
 100
AcDbEntity
8
engraving255
 6
CONTINUOUS
100
AcDbCircle
 10
52.373333333333
 20
34.647000000000
 30
 0
 40
0.626666666667
100
AcDbArc
 50
-180.000000000000
 51
0.000000000000
0
ARC
  5
00000112
 39
 0.100 
 100
AcDbEntity
8
engraving255
 6
CONTINUOUS
100
AcDbCircle
 10
52.488145746488
 20
34.643359425660
 30
 0
 40
0.741488017161
100
AcDbArc
 50
119.768438894359
 51
179.718686778586
0
LWPOLYLINE
  5
00000113
 39
 0.100 
 100
AcDbEntity
8
engraving255
 6
CONTINUOUS
100
AcDbPolyline
 90
6
 70
8
 10
51.158217987008
 20
23.450935627379
 10
49.826196724931
 20
25.143779198821
 10
49.159509905039
 20
23.989090296146
 10
49.292847269018
 20
24.220028076681
 10
49.639253939820
 20
24.020022030714
 10
48.946440598215
 20
24.420034122648
0
LWPOLYLINE
  5
00000114
 39
 0.100 
 100
AcDbEntity
8
engraving255
 6
CONTINUOUS
100
AcDbPolyline
 90
3
 70
8
 10
42.626438804668
 20
15.168936182125
 10
43.665669289210
 20
15.768936182125
 10
43.105669289210
 20
16.738884634364
0
ARC
  5
00000115
 39
 0.100 
 100
AcDbEntity
8
engraving255
 6
CONTINUOUS
100
AcDbCircle
 10
42.260769830744
 20
17.086042330101
 30
 0
 40
0.913440507437
100
AcDbArc
 50
294.857503260513
 51
337.662906156110
0
ARC
  5
00000116
 39
 0.100 
 100
AcDbEntity
8
engraving255
 6
CONTINUOUS
100
AcDbCircle
 10
42.323679464403
 20
16.958948852168
 30
 0
 40
0.771685253738
100
AcDbArc
 50
165.755257466132
 51
294.586049357568
0
ARC
  5
00000117
 39
 0.100 
 100
AcDbEntity
8
engraving255
 6
CONTINUOUS
100
AcDbCircle
 10
42.273154304283
 20
16.969074513617
 30
 0
 40
0.720226760047
100
AcDbArc
 50
58.566076208517
 51
165.546980170302
0
ARC
  5
00000118
 39
 0.100 
 100
AcDbEntity
8
engraving255
 6
CONTINUOUS
100
AcDbCircle
 10
31.998666666667
 20
14.093666666667
 30
 0
 40
0.693333333333
100
AcDbArc
 50
-180.000000000000
 51
0.000000000000
0
LINE
  5
00000119
 39
 0.100 
 100
AcDbEntity
8
engraving255
 6
CONTINUOUS
 100
AcDbLine
 10
31.305333333333
 20
14.227000000000
 30
 0.0
 11
31.305333333333
 21
14.093666666667
 31
0.0
0
ARC
  5
0000011a
 39
 0.100 
 100
AcDbEntity
8
engraving255
 6
CONTINUOUS
100
AcDbCircle
 10
31.998666666667
 20
14.227000000000
 30
 0
 40
0.693333333333
100
AcDbArc
 50
0.000000000000
 51
180.000000000000
0
LINE
  5
0000011b
 39
 0.100 
 100
AcDbEntity
8
engraving255
 6
CONTINUOUS
 100
AcDbLine
 10
32.692000000000
 20
13.187000000000
 30
 0.0
 11
32.692000000000
 21
14.227000000000
 31
0.0
0
ARC
  5
0000011c
 39
 0.100 
 100
AcDbEntity
8
engraving255
 6
CONTINUOUS
100
AcDbCircle
 10
31.953392296893
 20
13.157534700604
 30
 0
 40
0.739195199496
100
AcDbArc
 50
-134.133494378096
 51
2.284490888253
0
LWPOLYLINE
  5
0000011d
 39
 0.100 
 100
AcDbEntity
8
engraving255
 6
CONTINUOUS
100
AcDbPolyline
 90
4
 70
8
 10
21.676772918920
 20
15.455179676972
 10
21.476772918920
 20
15.108769515459
 10
20.322072380541
 20
15.775436182125
 10
22.445832811245
 20
17.320563817875
0
ARC
  5
0000011e
 39
 0.100 
 100
AcDbEntity
8
engraving255
 6
CONTINUOUS
100
AcDbCircle
 10
14.298812451339
 20
24.448280213604
 30
 0
 40
0.693333333333
100
AcDbArc
 50
29.999000000000
 51
209.999000000000
0
ARC
  5
0000011f
 39
 0.100 
 100
AcDbEntity
8
engraving255
 6
CONTINUOUS
100
AcDbCircle
 10
14.298812451339
 20
24.448280213604
 30
 0
 40
0.693333333333
100
AcDbArc
 50
-150.001000000000
 51
29.999000000000
0
ARC
  5
00000120
 39
 0.100 
 100
AcDbEntity
8
engraving255
 6
CONTINUOUS
100
AcDbCircle
 10
13.213383008031
 20
23.821632491159
 30
 0
 40
0.560000000000
100
AcDbArc
 50
29.999000000000
 51
209.998997843896
0
ARC
  5
00000121
 39
 0.100 
 100
AcDbEntity
8
engraving255
 6
CONTINUOUS
100
AcDbCircle
 10
13.213383008031
 20
23.821632491159
 30
 0
 40
0.560000000000
100
AcDbArc
 50
209.999000000000
 51
389.998997843896
0
ARC
  5
00000122
 39
 0.100 
 100
AcDbEntity
8
engraving255
 6
CONTINUOUS
100
AcDbCircle
 10
10.600000000000
 20
34.667666666667
 30
 0
 40
0.666666666667
100
AcDbArc
 50
-90.000000000000
 51
90.000000000000
0
LINE
  5
00000123
 39
 0.100 
 100
AcDbEntity
8
engraving255
 6
CONTINUOUS
 100
AcDbLine
 10
10.413333333333
 20
34.001000000000
 30
 0.0
 11
10.600000000000
 21
34.001000000000
 31
0.0
0
ARC
  5
00000124
 39
 0.100 
 100
AcDbEntity
8
engraving255
 6
CONTINUOUS
100
AcDbCircle
 10
10.413333333333
 20
34.667666666667
 30
 0
 40
0.666666666667
100
AcDbArc
 50
90.000000000000
 51
270.000000000000
0
LINE
  5
00000125
 39
 0.100 
 100
AcDbEntity
8
engraving255
 6
CONTINUOUS
 100
AcDbLine
 10
11.506666666667
 20
35.334333333333
 30
 0.0
 11
10.413333333333
 21
35.334333333333
 31
0.0
0
ARC
  5
00000126
 39
 0.100 
 100
AcDbEntity
8
engraving255
 6
CONTINUOUS
100
AcDbCircle
 10
11.546793017152
 20
34.622392296893
 30
 0
 40
0.713070938526
100
AcDbArc
 50
-43.192099155074
 51
93.225886111275
0
LWPOLYLINE
  5
00000127
 39
 0.100 
 100
AcDbEntity
8
engraving255
 6
CONTINUOUS
100
AcDbPolyline
 90
3
 70
8
 10
14.483208827368
 20
43.926129521113
 10
12.404768802553
 20
45.126165796918
 10
12.844782103681
 20
45.888260472683
0
ARC
  5
00000128
 39
 0.100 
 100
AcDbEntity
8
engraving255
 6
CONTINUOUS
100
AcDbCircle
 10
13.364392109885
 20
45.588251403732
 30
 0
 40
0.600000000000
100
AcDbArc
 50
-30.001000000000
 51
149.999000000000
0
LINE
  5
00000129
 39
 0.100 
 100
AcDbEntity
8
engraving255
 6
CONTINUOUS
 100
AcDbLine
 10
13.443988814960
 20
44.526147659015
 30
 0.0
 11
13.884002116089
 21
45.288242334781
 31
0.0
0
ARC
  5
0000012a
 39
 0.100 
 100
AcDbEntity
8
engraving255
 6
CONTINUOUS
100
AcDbCircle
 10
148.183521416166
 20
65.174027920409
 30
 0
 40
0.888588411822
100
AcDbArc
 50
44.794028802543
 51
158.010431013913
0
LINE
  5
0000012b
 39
 0.100 
 100
AcDbEntity
8
engraving255
 6
CONTINUOUS
 100
AcDbLine
 10
149.610201000000
 20
64.994299000000
 30
 0.0
 11
148.814103000000
 21
65.800092000000
 31
0.0
0
ARC
  5
0000012c
 39
 0.100 
 100
AcDbEntity
8
engraving255
 6
CONTINUOUS
100
AcDbCircle
 10
148.977798121409
 20
64.380338313840
 30
 0
 40
0.881408602749
100
AcDbArc
 50
-134.139533863141
 51
44.152267673403
0
LINE
  5
0000012d
 39
 0.100 
 100
AcDbEntity
8
engraving255
 6
CONTINUOUS
 100
AcDbLine
 10
147.560401000000
 20
64.551099000000
 30
 0.0
 11
148.363978000000
 21
63.747799000000
 31
0.0
0
ARC
  5
0000012e
 39
 0.100 
 100
AcDbEntity
8
engraving255
 6
CONTINUOUS
100
AcDbCircle
 10
148.184072920951
 20
65.173926793228
 30
 0
 40
0.881408602749
100
AcDbArc
 50
208.114803262717
 51
224.961199390622
0
ARC
  5
0000012f
 39
 0.100 
 100
AcDbEntity
8
engraving255
 6
CONTINUOUS
100
AcDbCircle
 10
148.183645663033
 20
65.174213570512
 30
 0
 40
0.353446464298
100
AcDbArc
 50
45.014912014849
 51
177.732286466180
0
LINE
  5
00000130
 39
 0.100 
 100
AcDbEntity
8
engraving255
 6
CONTINUOUS
 100
AcDbLine
 10
149.236251000000
 20
64.613424000000
 30
 0.0
 11
148.433505000000
 21
65.424203000000
 31
0.0
0
ARC
  5
00000131
 39
 0.100 
 100
AcDbEntity
8
engraving255
 6
CONTINUOUS
100
AcDbCircle
 10
148.981295928726
 20
64.377004791269
 30
 0
 40
0.347701208835
100
AcDbArc
 50
-134.421716162762
 51
42.839684703982
0
LINE
  5
00000132
 39
 0.100 
 100
AcDbEntity
8
engraving255
 6
CONTINUOUS
 100
AcDbLine
 10
148.149026000000
 20
64.717299000000
 30
 0.0
 11
148.737928000000
 21
64.128674000000
 31
0.0
0
ARC
  5
00000133
 39
 0.100 
 100
AcDbEntity
8
engraving255
 6
CONTINUOUS
100
AcDbCircle
 10
147.816755583834
 20
65.541695079591
 30
 0
 40
0.888588411822
100
AcDbArc
 50
224.794028802542
 51
338.010431013912
0
LINE
  5
00000134
 39
 0.100 
 100
AcDbEntity
8
engraving255
 6
CONTINUOUS
 100
AcDbLine
 10
146.390076000000
 20
65.721424000000
 30
 0.0
 11
147.186174000000
 21
64.915631000000
 31
0.0
0
ARC
  5
00000135
 39
 0.100 
 100
AcDbEntity
8
engraving255
 6
CONTINUOUS
100
AcDbCircle
 10
147.022478878591
 20
66.335384686160
 30
 0
 40
0.881408602749
100
AcDbArc
 50
45.860466136858
 51
224.152267673401
0
LINE
  5
00000136
 39
 0.100 
 100
AcDbEntity
8
engraving255
 6
CONTINUOUS
 100
AcDbLine
 10
148.439876000000
 20
66.164624000000
 30
 0.0
 11
147.636299000000
 21
66.967924000000
 31
0.0
0
ARC
  5
00000137
 39
 0.100 
 100
AcDbEntity
8
engraving255
 6
CONTINUOUS
100
AcDbCircle
 10
147.816204079049
 20
65.541796206772
 30
 0
 40
0.881408602749
100
AcDbArc
 50
28.114803262718
 51
44.961199390623
0
ARC
  5
00000138
 39
 0.100 
 100
AcDbEntity
8
engraving255
 6
CONTINUOUS
100
AcDbCircle
 10
147.816631336967
 20
65.541509429488
 30
 0
 40
0.353446464298
100
AcDbArc
 50
225.014912014846
 51
357.732286466177
0
LINE
  5
00000139
 39
 0.100 
 100
AcDbEntity
8
engraving255
 6
CONTINUOUS
 100
AcDbLine
 10
146.764026000000
 20
66.102299000000
 30
 0.0
 11
147.566772000000
 21
65.291520000000
 31
0.0
0
ARC
  5
0000013a
 39
 0.100 
 100
AcDbEntity
8
engraving255
 6
CONTINUOUS
100
AcDbCircle
 10
147.018981071274
 20
66.338718208731
 30
 0
 40
0.347701208835
100
AcDbArc
 50
45.578283837231
 51
222.839684703972
0
LINE
  5
0000013b
 39
 0.100 
 100
AcDbEntity
8
engraving255
 6
CONTINUOUS
 100
AcDbLine
 10
147.851251000000
 20
65.998424000000
 30
 0.0
 11
147.262349000000
 21
66.587049000000
 31
0.0
0
CIRCLE
  5
0000013c
 39
 0.100 
 100
AcDbEntity
8
contour007
 6
CONTINUOUS
100
AcDbCircle
 10
8.000000000000
 20
72.000000000000
 30
 0
 40
2.500000000000
0
CIRCLE
  5
0000013d
 39
 0.100 
 100
AcDbEntity
8
contour007
 6
CONTINUOUS
100
AcDbCircle
 10
8.000000000000
 20
72.000000000000
 30
 0
 40
1.351000000000
0
CIRCLE
  5
0000013e
 39
 0.100 
 100
AcDbEntity
8
contour007
 6
CONTINUOUS
100
AcDbCircle
 10
8.000000000000
 20
72.000000000000
 30
 0
 40
1.351000000000
0
CIRCLE
  5
0000013f
 39
 0.100 
 100
AcDbEntity
8
contour007
 6
CONTINUOUS
100
AcDbCircle
 10
8.000000000000
 20
8.000000000000
 30
 0
 40
2.500000000000
0
CIRCLE
  5
00000140
 39
 0.100 
 100
AcDbEntity
8
contour007
 6
CONTINUOUS
100
AcDbCircle
 10
8.000000000000
 20
8.000000000000
 30
 0
 40
1.351000000000
0
CIRCLE
  5
00000141
 39
 0.100 
 100
AcDbEntity
8
contour007
 6
CONTINUOUS
100
AcDbCircle
 10
8.000000000000
 20
8.000000000000
 30
 0
 40
1.351000000000
0
CIRCLE
  5
00000142
 39
 0.100 
 100
AcDbEntity
8
contour007
 6
CONTINUOUS
100
AcDbCircle
 10
172.000000000000
 20
72.000000000000
 30
 0
 40
2.500000000000
0
CIRCLE
  5
00000143
 39
 0.100 
 100
AcDbEntity
8
contour007
 6
CONTINUOUS
100
AcDbCircle
 10
172.000000000000
 20
72.000000000000
 30
 0
 40
1.351000000000
0
CIRCLE
  5
00000144
 39
 0.100 
 100
AcDbEntity
8
contour007
 6
CONTINUOUS
100
AcDbCircle
 10
172.000000000000
 20
72.000000000000
 30
 0
 40
1.351000000000
0
CIRCLE
  5
00000145
 39
 0.100 
 100
AcDbEntity
8
contour007
 6
CONTINUOUS
100
AcDbCircle
 10
172.000000000000
 20
8.000000000000
 30
 0
 40
2.500000000000
0
CIRCLE
  5
00000146
 39
 0.100 
 100
AcDbEntity
8
contour007
 6
CONTINUOUS
100
AcDbCircle
 10
172.000000000000
 20
8.000000000000
 30
 0
 40
1.351000000000
0
CIRCLE
  5
00000147
 39
 0.100 
 100
AcDbEntity
8
contour007
 6
CONTINUOUS
100
AcDbCircle
 10
172.000000000000
 20
8.000000000000
 30
 0
 40
1.351000000000
0
CIRCLE
  5
00000148
 39
 0.100 
 100
AcDbEntity
8
contour007
 6
CONTINUOUS
100
AcDbCircle
 10
89.987000000000
 20
34.667000000000
 30
 0
 40
5.250000000000
0
CIRCLE
  5
00000149
 39
 0.100 
 100
AcDbEntity
8
contour007
 6
CONTINUOUS
100
AcDbCircle
 10
147.987000000000
 20
34.667000000000
 30
 0
 40
5.250000000000
0
CIRCLE
  5
0000014a
 39
 0.100 
 100
AcDbEntity
8
contour007
 6
CONTINUOUS
100
AcDbCircle
 10
116.000000000000
 20
64.500000000000
 30
 0
 40
1.115000000000
0
CIRCLE
  5
0000014b
 39
 0.100 
 100
AcDbEntity
8
contour007
 6
CONTINUOUS
100
AcDbCircle
 10
116.000000000000
 20
64.500000000000
 30
 0
 40
1.000000000000
0
CIRCLE
  5
0000014c
 39
 0.100 
 100
AcDbEntity
8
contour007
 6
CONTINUOUS
100
AcDbCircle
 10
116.000000000000
 20
64.500000000000
 30
 0
 40
1.000000000000
0
CIRCLE
  5
0000014d
 39
 0.100 
 100
AcDbEntity
8
contour007
 6
CONTINUOUS
100
AcDbCircle
 10
116.000000000000
 20
70.500000000000
 30
 0
 40
1.115000000000
0
CIRCLE
  5
0000014e
 39
 0.100 
 100
AcDbEntity
8
contour007
 6
CONTINUOUS
100
AcDbCircle
 10
116.000000000000
 20
70.500000000000
 30
 0
 40
1.000000000000
0
CIRCLE
  5
0000014f
 39
 0.100 
 100
AcDbEntity
8
contour007
 6
CONTINUOUS
100
AcDbCircle
 10
116.000000000000
 20
70.500000000000
 30
 0
 40
1.000000000000
0
CIRCLE
  5
00000150
 39
 0.100 
 100
AcDbEntity
8
contour007
 6
CONTINUOUS
100
AcDbCircle
 10
122.000000000000
 20
64.500000000000
 30
 0
 40
1.115000000000
0
CIRCLE
  5
00000151
 39
 0.100 
 100
AcDbEntity
8
contour007
 6
CONTINUOUS
100
AcDbCircle
 10
122.000000000000
 20
64.500000000000
 30
 0
 40
1.000000000000
0
CIRCLE
  5
00000152
 39
 0.100 
 100
AcDbEntity
8
contour007
 6
CONTINUOUS
100
AcDbCircle
 10
122.000000000000
 20
64.500000000000
 30
 0
 40
1.000000000000
0
CIRCLE
  5
00000153
 39
 0.100 
 100
AcDbEntity
8
contour007
 6
CONTINUOUS
100
AcDbCircle
 10
122.000000000000
 20
70.500000000000
 30
 0
 40
1.115000000000
0
CIRCLE
  5
00000154
 39
 0.100 
 100
AcDbEntity
8
contour007
 6
CONTINUOUS
100
AcDbCircle
 10
122.000000000000
 20
70.500000000000
 30
 0
 40
1.000000000000
0
CIRCLE
  5
00000155
 39
 0.100 
 100
AcDbEntity
8
contour007
 6
CONTINUOUS
100
AcDbCircle
 10
122.000000000000
 20
70.500000000000
 30
 0
 40
1.000000000000
0
CIRCLE
  5
00000156
 39
 0.100 
 100
AcDbEntity
8
contour007
 6
CONTINUOUS
100
AcDbCircle
 10
32.000000000000
 20
64.666000000000
 30
 0
 40
1.115000000000
0
CIRCLE
  5
00000157
 39
 0.100 
 100
AcDbEntity
8
contour007
 6
CONTINUOUS
100
AcDbCircle
 10
32.000000000000
 20
64.666000000000
 30
 0
 40
1.000000000000
0
CIRCLE
  5
00000158
 39
 0.100 
 100
AcDbEntity
8
contour007
 6
CONTINUOUS
100
AcDbCircle
 10
32.000000000000
 20
64.666000000000
 30
 0
 40
1.000000000000
0
CIRCLE
  5
00000159
 39
 0.100 
 100
AcDbEntity
8
contour007
 6
CONTINUOUS
100
AcDbCircle
 10
32.000000000000
 20
70.666000000000
 30
 0
 40
1.115000000000
0
CIRCLE
  5
0000015a
 39
 0.100 
 100
AcDbEntity
8
contour007
 6
CONTINUOUS
100
AcDbCircle
 10
32.000000000000
 20
70.666000000000
 30
 0
 40
1.000000000000
0
CIRCLE
  5
0000015b
 39
 0.100 
 100
AcDbEntity
8
contour007
 6
CONTINUOUS
100
AcDbCircle
 10
32.000000000000
 20
70.666000000000
 30
 0
 40
1.000000000000
0
CIRCLE
  5
0000015c
 39
 0.100 
 100
AcDbEntity
8
contour007
 6
CONTINUOUS
100
AcDbCircle
 10
32.000000000000
 20
34.667000000000
 30
 0
 40
5.250000000000
0
CIRCLE
  5
0000015d
 39
 0.100 
 100
AcDbEntity
8
contour007
 6
CONTINUOUS
100
AcDbCircle
 10
148.000000000000
 20
70.500000000000
 30
 0
 40
1.115000000000
0
CIRCLE
  5
0000015e
 39
 0.100 
 100
AcDbEntity
8
contour007
 6
CONTINUOUS
100
AcDbCircle
 10
148.000000000000
 20
70.500000000000
 30
 0
 40
1.000000000000
0
CIRCLE
  5
0000015f
 39
 0.100 
 100
AcDbEntity
8
contour007
 6
CONTINUOUS
100
AcDbCircle
 10
148.000000000000
 20
70.500000000000
 30
 0
 40
1.000000000000
0
LINE
  5
00000160
 39
 0.100 
 100
AcDbEntity
8
reference_cross001
 6
CONTINUOUS
 100
AcDbLine
 10
8.750000000000
 20
72.000000000000
 30
 0.0
 11
7.250000000000
 21
72.000000000000
 31
0.0
0
LINE
  5
00000161
 39
 0.100 
 100
AcDbEntity
8
reference_cross001
 6
CONTINUOUS
 100
AcDbLine
 10
8.000000000000
 20
71.250000000000
 30
 0.0
 11
8.000000000000
 21
72.750000000000
 31
0.0
0
LINE
  5
00000162
 39
 0.100 
 100
AcDbEntity
8
reference_cross001
 6
CONTINUOUS
 100
AcDbLine
 10
8.750000000000
 20
8.000000000000
 30
 0.0
 11
7.250000000000
 21
8.000000000000
 31
0.0
0
LINE
  5
00000163
 39
 0.100 
 100
AcDbEntity
8
reference_cross001
 6
CONTINUOUS
 100
AcDbLine
 10
8.000000000000
 20
7.250000000000
 30
 0.0
 11
8.000000000000
 21
8.750000000000
 31
0.0
0
LINE
  5
00000164
 39
 0.100 
 100
AcDbEntity
8
reference_cross001
 6
CONTINUOUS
 100
AcDbLine
 10
172.750000000000
 20
72.000000000000
 30
 0.0
 11
171.250000000000
 21
72.000000000000
 31
0.0
0
LINE
  5
00000165
 39
 0.100 
 100
AcDbEntity
8
reference_cross001
 6
CONTINUOUS
 100
AcDbLine
 10
172.000000000000
 20
71.250000000000
 30
 0.0
 11
172.000000000000
 21
72.750000000000
 31
0.0
0
LINE
  5
00000166
 39
 0.100 
 100
AcDbEntity
8
reference_cross001
 6
CONTINUOUS
 100
AcDbLine
 10
172.750000000000
 20
8.000000000000
 30
 0.0
 11
171.250000000000
 21
8.000000000000
 31
0.0
0
LINE
  5
00000167
 39
 0.100 
 100
AcDbEntity
8
reference_cross001
 6
CONTINUOUS
 100
AcDbLine
 10
172.000000000000
 20
7.250000000000
 30
 0.0
 11
172.000000000000
 21
8.750000000000
 31
0.0
0
LINE
  5
00000168
 39
 0.100 
 100
AcDbEntity
8
reference_cross001
 6
CONTINUOUS
 100
AcDbLine
 10
90.750000000000
 20
34.643000000000
 30
 0.0
 11
89.250000000000
 21
34.643000000000
 31
0.0
0
LINE
  5
00000169
 39
 0.100 
 100
AcDbEntity
8
reference_cross001
 6
CONTINUOUS
 100
AcDbLine
 10
90.000000000000
 20
33.893000000000
 30
 0.0
 11
90.000000000000
 21
35.393000000000
 31
0.0
0
LINE
  5
0000016a
 39
 0.100 
 100
AcDbEntity
8
reference_cross092
 6
CONTINUOUS
 100
AcDbLine
 10
90.737000000000
 20
34.667000000000
 30
 0.0
 11
89.237000000000
 21
34.667000000000
 31
0.0
0
LINE
  5
0000016b
 39
 0.100 
 100
AcDbEntity
8
reference_cross092
 6
CONTINUOUS
 100
AcDbLine
 10
89.987000000000
 20
33.917000000000
 30
 0.0
 11
89.987000000000
 21
35.417000000000
 31
0.0
0
LINE
  5
0000016c
 39
 0.100 
 100
AcDbEntity
8
reference_cross092
 6
CONTINUOUS
 100
AcDbLine
 10
90.750000000000
 20
34.643000000000
 30
 0.0
 11
89.250000000000
 21
34.643000000000
 31
0.0
0
LINE
  5
0000016d
 39
 0.100 
 100
AcDbEntity
8
reference_cross092
 6
CONTINUOUS
 100
AcDbLine
 10
90.000000000000
 20
33.893000000000
 30
 0.0
 11
90.000000000000
 21
35.393000000000
 31
0.0
0
LINE
  5
0000016e
 39
 0.100 
 100
AcDbEntity
8
reference_cross251
 6
CONTINUOUS
 100
AcDbLine
 10
90.737000000000
 20
55.667000000000
 30
 0.0
 11
89.237000000000
 21
55.667000000000
 31
0.0
0
LINE
  5
0000016f
 39
 0.100 
 100
AcDbEntity
8
reference_cross251
 6
CONTINUOUS
 100
AcDbLine
 10
89.987000000000
 20
54.917000000000
 30
 0.0
 11
89.987000000000
 21
56.417000000000
 31
0.0
0
LINE
  5
00000170
 39
 0.100 
 100
AcDbEntity
8
reference_cross251
 6
CONTINUOUS
 100
AcDbLine
 10
101.237000000000
 20
52.853000000000
 30
 0.0
 11
99.737000000000
 21
52.853000000000
 31
0.0
0
LINE
  5
00000171
 39
 0.100 
 100
AcDbEntity
8
reference_cross251
 6
CONTINUOUS
 100
AcDbLine
 10
100.487000000000
 20
52.103000000000
 30
 0.0
 11
100.487000000000
 21
53.603000000000
 31
0.0
0
LINE
  5
00000172
 39
 0.100 
 100
AcDbEntity
8
reference_cross251
 6
CONTINUOUS
 100
AcDbLine
 10
108.923000000000
 20
45.166000000000
 30
 0.0
 11
107.423000000000
 21
45.166000000000
 31
0.0
0
LINE
  5
00000173
 39
 0.100 
 100
AcDbEntity
8
reference_cross251
 6
CONTINUOUS
 100
AcDbLine
 10
108.173000000000
 20
44.416000000000
 30
 0.0
 11
108.173000000000
 21
45.916000000000
 31
0.0
0
LINE
  5
00000174
 39
 0.100 
 100
AcDbEntity
8
reference_cross251
 6
CONTINUOUS
 100
AcDbLine
 10
111.737000000000
 20
34.667000000000
 30
 0.0
 11
110.237000000000
 21
34.667000000000
 31
0.0
0
LINE
  5
00000175
 39
 0.100 
 100
AcDbEntity
8
reference_cross251
 6
CONTINUOUS
 100
AcDbLine
 10
110.987000000000
 20
33.917000000000
 30
 0.0
 11
110.987000000000
 21
35.417000000000
 31
0.0
0
LINE
  5
00000176
 39
 0.100 
 100
AcDbEntity
8
reference_cross251
 6
CONTINUOUS
 100
AcDbLine
 10
108.923000000000
 20
24.167000000000
 30
 0.0
 11
107.423000000000
 21
24.167000000000
 31
0.0
0
LINE
  5
00000177
 39
 0.100 
 100
AcDbEntity
8
reference_cross251
 6
CONTINUOUS
 100
AcDbLine
 10
108.173000000000
 20
23.417000000000
 30
 0.0
 11
108.173000000000
 21
24.917000000000
 31
0.0
0
LINE
  5
00000178
 39
 0.100 
 100
AcDbEntity
8
reference_cross251
 6
CONTINUOUS
 100
AcDbLine
 10
101.236000000000
 20
16.481000000000
 30
 0.0
 11
99.736000000000
 21
16.481000000000
 31
0.0
0
LINE
  5
00000179
 39
 0.100 
 100
AcDbEntity
8
reference_cross251
 6
CONTINUOUS
 100
AcDbLine
 10
100.486000000000
 20
15.731000000000
 30
 0.0
 11
100.486000000000
 21
17.231000000000
 31
0.0
0
LINE
  5
0000017a
 39
 0.100 
 100
AcDbEntity
8
reference_cross251
 6
CONTINUOUS
 100
AcDbLine
 10
90.737000000000
 20
13.667000000000
 30
 0.0
 11
89.237000000000
 21
13.667000000000
 31
0.0
0
LINE
  5
0000017b
 39
 0.100 
 100
AcDbEntity
8
reference_cross251
 6
CONTINUOUS
 100
AcDbLine
 10
89.987000000000
 20
12.917000000000
 30
 0.0
 11
89.987000000000
 21
14.417000000000
 31
0.0
0
LINE
  5
0000017c
 39
 0.100 
 100
AcDbEntity
8
reference_cross251
 6
CONTINUOUS
 100
AcDbLine
 10
80.237000000000
 20
16.481000000000
 30
 0.0
 11
78.737000000000
 21
16.481000000000
 31
0.0
0
LINE
  5
0000017d
 39
 0.100 
 100
AcDbEntity
8
reference_cross251
 6
CONTINUOUS
 100
AcDbLine
 10
79.487000000000
 20
15.731000000000
 30
 0.0
 11
79.487000000000
 21
17.231000000000
 31
0.0
0
LINE
  5
0000017e
 39
 0.100 
 100
AcDbEntity
8
reference_cross251
 6
CONTINUOUS
 100
AcDbLine
 10
72.551000000000
 20
24.168000000000
 30
 0.0
 11
71.051000000000
 21
24.168000000000
 31
0.0
0
LINE
  5
0000017f
 39
 0.100 
 100
AcDbEntity
8
reference_cross251
 6
CONTINUOUS
 100
AcDbLine
 10
71.801000000000
 20
23.418000000000
 30
 0.0
 11
71.801000000000
 21
24.918000000000
 31
0.0
0
LINE
  5
00000180
 39
 0.100 
 100
AcDbEntity
8
reference_cross251
 6
CONTINUOUS
 100
AcDbLine
 10
69.737000000000
 20
34.667000000000
 30
 0.0
 11
68.237000000000
 21
34.667000000000
 31
0.0
0
LINE
  5
00000181
 39
 0.100 
 100
AcDbEntity
8
reference_cross251
 6
CONTINUOUS
 100
AcDbLine
 10
68.987000000000
 20
33.917000000000
 30
 0.0
 11
68.987000000000
 21
35.417000000000
 31
0.0
0
LINE
  5
00000182
 39
 0.100 
 100
AcDbEntity
8
reference_cross251
 6
CONTINUOUS
 100
AcDbLine
 10
72.551000000000
 20
45.167000000000
 30
 0.0
 11
71.051000000000
 21
45.167000000000
 31
0.0
0
LINE
  5
00000183
 39
 0.100 
 100
AcDbEntity
8
reference_cross251
 6
CONTINUOUS
 100
AcDbLine
 10
71.801000000000
 20
44.417000000000
 30
 0.0
 11
71.801000000000
 21
45.917000000000
 31
0.0
0
LINE
  5
00000184
 39
 0.100 
 100
AcDbEntity
8
reference_cross001
 6
CONTINUOUS
 100
AcDbLine
 10
148.750000000000
 20
34.643000000000
 30
 0.0
 11
147.250000000000
 21
34.643000000000
 31
0.0
0
LINE
  5
00000185
 39
 0.100 
 100
AcDbEntity
8
reference_cross001
 6
CONTINUOUS
 100
AcDbLine
 10
148.000000000000
 20
33.893000000000
 30
 0.0
 11
148.000000000000
 21
35.393000000000
 31
0.0
0
LINE
  5
00000186
 39
 0.100 
 100
AcDbEntity
8
reference_cross092
 6
CONTINUOUS
 100
AcDbLine
 10
148.737000000000
 20
34.667000000000
 30
 0.0
 11
147.237000000000
 21
34.667000000000
 31
0.0
0
LINE
  5
00000187
 39
 0.100 
 100
AcDbEntity
8
reference_cross092
 6
CONTINUOUS
 100
AcDbLine
 10
147.987000000000
 20
33.917000000000
 30
 0.0
 11
147.987000000000
 21
35.417000000000
 31
0.0
0
LINE
  5
00000188
 39
 0.100 
 100
AcDbEntity
8
reference_cross092
 6
CONTINUOUS
 100
AcDbLine
 10
148.750000000000
 20
34.643000000000
 30
 0.0
 11
147.250000000000
 21
34.643000000000
 31
0.0
0
LINE
  5
00000189
 39
 0.100 
 100
AcDbEntity
8
reference_cross092
 6
CONTINUOUS
 100
AcDbLine
 10
148.000000000000
 20
33.893000000000
 30
 0.0
 11
148.000000000000
 21
35.393000000000
 31
0.0
0
LINE
  5
0000018a
 39
 0.100 
 100
AcDbEntity
8
reference_cross251
 6
CONTINUOUS
 100
AcDbLine
 10
148.737000000000
 20
55.667000000000
 30
 0.0
 11
147.237000000000
 21
55.667000000000
 31
0.0
0
LINE
  5
0000018b
 39
 0.100 
 100
AcDbEntity
8
reference_cross251
 6
CONTINUOUS
 100
AcDbLine
 10
147.987000000000
 20
54.917000000000
 30
 0.0
 11
147.987000000000
 21
56.417000000000
 31
0.0
0
LINE
  5
0000018c
 39
 0.100 
 100
AcDbEntity
8
reference_cross251
 6
CONTINUOUS
 100
AcDbLine
 10
159.237000000000
 20
52.853000000000
 30
 0.0
 11
157.737000000000
 21
52.853000000000
 31
0.0
0
LINE
  5
0000018d
 39
 0.100 
 100
AcDbEntity
8
reference_cross251
 6
CONTINUOUS
 100
AcDbLine
 10
158.487000000000
 20
52.103000000000
 30
 0.0
 11
158.487000000000
 21
53.603000000000
 31
0.0
0
LINE
  5
0000018e
 39
 0.100 
 100
AcDbEntity
8
reference_cross251
 6
CONTINUOUS
 100
AcDbLine
 10
166.923000000000
 20
45.166000000000
 30
 0.0
 11
165.423000000000
 21
45.166000000000
 31
0.0
0
LINE
  5
0000018f
 39
 0.100 
 100
AcDbEntity
8
reference_cross251
 6
CONTINUOUS
 100
AcDbLine
 10
166.173000000000
 20
44.416000000000
 30
 0.0
 11
166.173000000000
 21
45.916000000000
 31
0.0
0
LINE
  5
00000190
 39
 0.100 
 100
AcDbEntity
8
reference_cross251
 6
CONTINUOUS
 100
AcDbLine
 10
169.737000000000
 20
34.667000000000
 30
 0.0
 11
168.237000000000
 21
34.667000000000
 31
0.0
0
LINE
  5
00000191
 39
 0.100 
 100
AcDbEntity
8
reference_cross251
 6
CONTINUOUS
 100
AcDbLine
 10
168.987000000000
 20
33.917000000000
 30
 0.0
 11
168.987000000000
 21
35.417000000000
 31
0.0
0
LINE
  5
00000192
 39
 0.100 
 100
AcDbEntity
8
reference_cross251
 6
CONTINUOUS
 100
AcDbLine
 10
166.923000000000
 20
24.167000000000
 30
 0.0
 11
165.423000000000
 21
24.167000000000
 31
0.0
0
LINE
  5
00000193
 39
 0.100 
 100
AcDbEntity
8
reference_cross251
 6
CONTINUOUS
 100
AcDbLine
 10
166.173000000000
 20
23.417000000000
 30
 0.0
 11
166.173000000000
 21
24.917000000000
 31
0.0
0
LINE
  5
00000194
 39
 0.100 
 100
AcDbEntity
8
reference_cross251
 6
CONTINUOUS
 100
AcDbLine
 10
159.236000000000
 20
16.481000000000
 30
 0.0
 11
157.736000000000
 21
16.481000000000
 31
0.0
0
LINE
  5
00000195
 39
 0.100 
 100
AcDbEntity
8
reference_cross251
 6
CONTINUOUS
 100
AcDbLine
 10
158.486000000000
 20
15.731000000000
 30
 0.0
 11
158.486000000000
 21
17.231000000000
 31
0.0
0
LINE
  5
00000196
 39
 0.100 
 100
AcDbEntity
8
reference_cross251
 6
CONTINUOUS
 100
AcDbLine
 10
148.737000000000
 20
13.667000000000
 30
 0.0
 11
147.237000000000
 21
13.667000000000
 31
0.0
0
LINE
  5
00000197
 39
 0.100 
 100
AcDbEntity
8
reference_cross251
 6
CONTINUOUS
 100
AcDbLine
 10
147.987000000000
 20
12.917000000000
 30
 0.0
 11
147.987000000000
 21
14.417000000000
 31
0.0
0
LINE
  5
00000198
 39
 0.100 
 100
AcDbEntity
8
reference_cross251
 6
CONTINUOUS
 100
AcDbLine
 10
138.237000000000
 20
16.481000000000
 30
 0.0
 11
136.737000000000
 21
16.481000000000
 31
0.0
0
LINE
  5
00000199
 39
 0.100 
 100
AcDbEntity
8
reference_cross251
 6
CONTINUOUS
 100
AcDbLine
 10
137.487000000000
 20
15.731000000000
 30
 0.0
 11
137.487000000000
 21
17.231000000000
 31
0.0
0
LINE
  5
0000019a
 39
 0.100 
 100
AcDbEntity
8
reference_cross251
 6
CONTINUOUS
 100
AcDbLine
 10
130.551000000000
 20
24.168000000000
 30
 0.0
 11
129.051000000000
 21
24.168000000000
 31
0.0
0
LINE
  5
0000019b
 39
 0.100 
 100
AcDbEntity
8
reference_cross251
 6
CONTINUOUS
 100
AcDbLine
 10
129.801000000000
 20
23.418000000000
 30
 0.0
 11
129.801000000000
 21
24.918000000000
 31
0.0
0
LINE
  5
0000019c
 39
 0.100 
 100
AcDbEntity
8
reference_cross251
 6
CONTINUOUS
 100
AcDbLine
 10
127.737000000000
 20
34.667000000000
 30
 0.0
 11
126.237000000000
 21
34.667000000000
 31
0.0
0
LINE
  5
0000019d
 39
 0.100 
 100
AcDbEntity
8
reference_cross251
 6
CONTINUOUS
 100
AcDbLine
 10
126.987000000000
 20
33.917000000000
 30
 0.0
 11
126.987000000000
 21
35.417000000000
 31
0.0
0
LINE
  5
0000019e
 39
 0.100 
 100
AcDbEntity
8
reference_cross251
 6
CONTINUOUS
 100
AcDbLine
 10
130.551000000000
 20
45.167000000000
 30
 0.0
 11
129.051000000000
 21
45.167000000000
 31
0.0
0
LINE
  5
0000019f
 39
 0.100 
 100
AcDbEntity
8
reference_cross251
 6
CONTINUOUS
 100
AcDbLine
 10
129.801000000000
 20
44.417000000000
 30
 0.0
 11
129.801000000000
 21
45.917000000000
 31
0.0
0
LINE
  5
000001a0
 39
 0.100 
 100
AcDbEntity
8
reference_cross001
 6
CONTINUOUS
 100
AcDbLine
 10
119.750000000000
 20
67.500000000000
 30
 0.0
 11
118.250000000000
 21
67.500000000000
 31
0.0
0
LINE
  5
000001a1
 39
 0.100 
 100
AcDbEntity
8
reference_cross001
 6
CONTINUOUS
 100
AcDbLine
 10
119.000000000000
 20
66.750000000000
 30
 0.0
 11
119.000000000000
 21
68.250000000000
 31
0.0
0
LINE
  5
000001a2
 39
 0.100 
 100
AcDbEntity
8
reference_cross092
 6
CONTINUOUS
 100
AcDbLine
 10
116.750000000000
 20
67.500000000000
 30
 0.0
 11
115.250000000000
 21
67.500000000000
 31
0.0
0
LINE
  5
000001a3
 39
 0.100 
 100
AcDbEntity
8
reference_cross092
 6
CONTINUOUS
 100
AcDbLine
 10
116.000000000000
 20
66.750000000000
 30
 0.0
 11
116.000000000000
 21
68.250000000000
 31
0.0
0
LINE
  5
000001a4
 39
 0.100 
 100
AcDbEntity
8
reference_cross251
 6
CONTINUOUS
 100
AcDbLine
 10
116.750000000000
 20
64.500000000000
 30
 0.0
 11
115.250000000000
 21
64.500000000000
 31
0.0
0
LINE
  5
000001a5
 39
 0.100 
 100
AcDbEntity
8
reference_cross251
 6
CONTINUOUS
 100
AcDbLine
 10
116.000000000000
 20
63.750000000000
 30
 0.0
 11
116.000000000000
 21
65.250000000000
 31
0.0
0
LINE
  5
000001a6
 39
 0.100 
 100
AcDbEntity
8
reference_cross251
 6
CONTINUOUS
 100
AcDbLine
 10
116.750000000000
 20
70.500000000000
 30
 0.0
 11
115.250000000000
 21
70.500000000000
 31
0.0
0
LINE
  5
000001a7
 39
 0.100 
 100
AcDbEntity
8
reference_cross251
 6
CONTINUOUS
 100
AcDbLine
 10
116.000000000000
 20
69.750000000000
 30
 0.0
 11
116.000000000000
 21
71.250000000000
 31
0.0
0
LINE
  5
000001a8
 39
 0.100 
 100
AcDbEntity
8
reference_cross092
 6
CONTINUOUS
 100
AcDbLine
 10
119.750000000000
 20
67.500000000000
 30
 0.0
 11
118.250000000000
 21
67.500000000000
 31
0.0
0
LINE
  5
000001a9
 39
 0.100 
 100
AcDbEntity
8
reference_cross092
 6
CONTINUOUS
 100
AcDbLine
 10
119.000000000000
 20
66.750000000000
 30
 0.0
 11
119.000000000000
 21
68.250000000000
 31
0.0
0
LINE
  5
000001aa
 39
 0.100 
 100
AcDbEntity
8
reference_cross092
 6
CONTINUOUS
 100
AcDbLine
 10
122.750000000000
 20
67.500000000000
 30
 0.0
 11
121.250000000000
 21
67.500000000000
 31
0.0
0
LINE
  5
000001ab
 39
 0.100 
 100
AcDbEntity
8
reference_cross092
 6
CONTINUOUS
 100
AcDbLine
 10
122.000000000000
 20
66.750000000000
 30
 0.0
 11
122.000000000000
 21
68.250000000000
 31
0.0
0
LINE
  5
000001ac
 39
 0.100 
 100
AcDbEntity
8
reference_cross251
 6
CONTINUOUS
 100
AcDbLine
 10
122.750000000000
 20
64.500000000000
 30
 0.0
 11
121.250000000000
 21
64.500000000000
 31
0.0
0
LINE
  5
000001ad
 39
 0.100 
 100
AcDbEntity
8
reference_cross251
 6
CONTINUOUS
 100
AcDbLine
 10
122.000000000000
 20
63.750000000000
 30
 0.0
 11
122.000000000000
 21
65.250000000000
 31
0.0
0
LINE
  5
000001ae
 39
 0.100 
 100
AcDbEntity
8
reference_cross251
 6
CONTINUOUS
 100
AcDbLine
 10
122.750000000000
 20
70.500000000000
 30
 0.0
 11
121.250000000000
 21
70.500000000000
 31
0.0
0
LINE
  5
000001af
 39
 0.100 
 100
AcDbEntity
8
reference_cross251
 6
CONTINUOUS
 100
AcDbLine
 10
122.000000000000
 20
69.750000000000
 30
 0.0
 11
122.000000000000
 21
71.250000000000
 31
0.0
0
LINE
  5
000001b0
 39
 0.100 
 100
AcDbEntity
8
reference_cross001
 6
CONTINUOUS
 100
AcDbLine
 10
32.750000000000
 20
67.666000000000
 30
 0.0
 11
31.250000000000
 21
67.666000000000
 31
0.0
0
LINE
  5
000001b1
 39
 0.100 
 100
AcDbEntity
8
reference_cross001
 6
CONTINUOUS
 100
AcDbLine
 10
32.000000000000
 20
66.916000000000
 30
 0.0
 11
32.000000000000
 21
68.416000000000
 31
0.0
0
LINE
  5
000001b2
 39
 0.100 
 100
AcDbEntity
8
reference_cross092
 6
CONTINUOUS
 100
AcDbLine
 10
32.750000000000
 20
67.666000000000
 30
 0.0
 11
31.250000000000
 21
67.666000000000
 31
0.0
0
LINE
  5
000001b3
 39
 0.100 
 100
AcDbEntity
8
reference_cross092
 6
CONTINUOUS
 100
AcDbLine
 10
32.000000000000
 20
66.916000000000
 30
 0.0
 11
32.000000000000
 21
68.416000000000
 31
0.0
0
LINE
  5
000001b4
 39
 0.100 
 100
AcDbEntity
8
reference_cross251
 6
CONTINUOUS
 100
AcDbLine
 10
32.750000000000
 20
64.666000000000
 30
 0.0
 11
31.250000000000
 21
64.666000000000
 31
0.0
0
LINE
  5
000001b5
 39
 0.100 
 100
AcDbEntity
8
reference_cross251
 6
CONTINUOUS
 100
AcDbLine
 10
32.000000000000
 20
63.916000000000
 30
 0.0
 11
32.000000000000
 21
65.416000000000
 31
0.0
0
LINE
  5
000001b6
 39
 0.100 
 100
AcDbEntity
8
reference_cross251
 6
CONTINUOUS
 100
AcDbLine
 10
32.750000000000
 20
70.666000000000
 30
 0.0
 11
31.250000000000
 21
70.666000000000
 31
0.0
0
LINE
  5
000001b7
 39
 0.100 
 100
AcDbEntity
8
reference_cross251
 6
CONTINUOUS
 100
AcDbLine
 10
32.000000000000
 20
69.916000000000
 30
 0.0
 11
32.000000000000
 21
71.416000000000
 31
0.0
0
LINE
  5
000001b8
 39
 0.100 
 100
AcDbEntity
8
reference_cross092
 6
CONTINUOUS
 100
AcDbLine
 10
32.750000000000
 20
67.604000000000
 30
 0.0
 11
31.250000000000
 21
67.604000000000
 31
0.0
0
LINE
  5
000001b9
 39
 0.100 
 100
AcDbEntity
8
reference_cross092
 6
CONTINUOUS
 100
AcDbLine
 10
32.000000000000
 20
66.854000000000
 30
 0.0
 11
32.000000000000
 21
68.354000000000
 31
0.0
0
LINE
  5
000001ba
 39
 0.100 
 100
AcDbEntity
8
reference_cross001
 6
CONTINUOUS
 100
AcDbLine
 10
32.763000000000
 20
34.643000000000
 30
 0.0
 11
31.263000000000
 21
34.643000000000
 31
0.0
0
LINE
  5
000001bb
 39
 0.100 
 100
AcDbEntity
8
reference_cross001
 6
CONTINUOUS
 100
AcDbLine
 10
32.013000000000
 20
33.893000000000
 30
 0.0
 11
32.013000000000
 21
35.393000000000
 31
0.0
0
LINE
  5
000001bc
 39
 0.100 
 100
AcDbEntity
8
reference_cross092
 6
CONTINUOUS
 100
AcDbLine
 10
32.750000000000
 20
34.667000000000
 30
 0.0
 11
31.250000000000
 21
34.667000000000
 31
0.0
0
LINE
  5
000001bd
 39
 0.100 
 100
AcDbEntity
8
reference_cross092
 6
CONTINUOUS
 100
AcDbLine
 10
32.000000000000
 20
33.917000000000
 30
 0.0
 11
32.000000000000
 21
35.417000000000
 31
0.0
0
LINE
  5
000001be
 39
 0.100 
 100
AcDbEntity
8
reference_cross092
 6
CONTINUOUS
 100
AcDbLine
 10
32.763000000000
 20
34.643000000000
 30
 0.0
 11
31.263000000000
 21
34.643000000000
 31
0.0
0
LINE
  5
000001bf
 39
 0.100 
 100
AcDbEntity
8
reference_cross092
 6
CONTINUOUS
 100
AcDbLine
 10
32.013000000000
 20
33.893000000000
 30
 0.0
 11
32.013000000000
 21
35.393000000000
 31
0.0
0
LINE
  5
000001c0
 39
 0.100 
 100
AcDbEntity
8
reference_cross251
 6
CONTINUOUS
 100
AcDbLine
 10
32.750000000000
 20
55.667000000000
 30
 0.0
 11
31.250000000000
 21
55.667000000000
 31
0.0
0
LINE
  5
000001c1
 39
 0.100 
 100
AcDbEntity
8
reference_cross251
 6
CONTINUOUS
 100
AcDbLine
 10
32.000000000000
 20
54.917000000000
 30
 0.0
 11
32.000000000000
 21
56.417000000000
 31
0.0
0
LINE
  5
000001c2
 39
 0.100 
 100
AcDbEntity
8
reference_cross251
 6
CONTINUOUS
 100
AcDbLine
 10
43.250000000000
 20
52.853000000000
 30
 0.0
 11
41.750000000000
 21
52.853000000000
 31
0.0
0
LINE
  5
000001c3
 39
 0.100 
 100
AcDbEntity
8
reference_cross251
 6
CONTINUOUS
 100
AcDbLine
 10
42.500000000000
 20
52.103000000000
 30
 0.0
 11
42.500000000000
 21
53.603000000000
 31
0.0
0
LINE
  5
000001c4
 39
 0.100 
 100
AcDbEntity
8
reference_cross251
 6
CONTINUOUS
 100
AcDbLine
 10
50.936000000000
 20
45.166000000000
 30
 0.0
 11
49.436000000000
 21
45.166000000000
 31
0.0
0
LINE
  5
000001c5
 39
 0.100 
 100
AcDbEntity
8
reference_cross251
 6
CONTINUOUS
 100
AcDbLine
 10
50.186000000000
 20
44.416000000000
 30
 0.0
 11
50.186000000000
 21
45.916000000000
 31
0.0
0
LINE
  5
000001c6
 39
 0.100 
 100
AcDbEntity
8
reference_cross251
 6
CONTINUOUS
 100
AcDbLine
 10
53.750000000000
 20
34.667000000000
 30
 0.0
 11
52.250000000000
 21
34.667000000000
 31
0.0
0
LINE
  5
000001c7
 39
 0.100 
 100
AcDbEntity
8
reference_cross251
 6
CONTINUOUS
 100
AcDbLine
 10
53.000000000000
 20
33.917000000000
 30
 0.0
 11
53.000000000000
 21
35.417000000000
 31
0.0
0
LINE
  5
000001c8
 39
 0.100 
 100
AcDbEntity
8
reference_cross251
 6
CONTINUOUS
 100
AcDbLine
 10
50.936000000000
 20
24.167000000000
 30
 0.0
 11
49.436000000000
 21
24.167000000000
 31
0.0
0
LINE
  5
000001c9
 39
 0.100 
 100
AcDbEntity
8
reference_cross251
 6
CONTINUOUS
 100
AcDbLine
 10
50.186000000000
 20
23.417000000000
 30
 0.0
 11
50.186000000000
 21
24.917000000000
 31
0.0
0
LINE
  5
000001ca
 39
 0.100 
 100
AcDbEntity
8
reference_cross251
 6
CONTINUOUS
 100
AcDbLine
 10
43.249000000000
 20
16.481000000000
 30
 0.0
 11
41.749000000000
 21
16.481000000000
 31
0.0
0
LINE
  5
000001cb
 39
 0.100 
 100
AcDbEntity
8
reference_cross251
 6
CONTINUOUS
 100
AcDbLine
 10
42.499000000000
 20
15.731000000000
 30
 0.0
 11
42.499000000000
 21
17.231000000000
 31
0.0
0
LINE
  5
000001cc
 39
 0.100 
 100
AcDbEntity
8
reference_cross251
 6
CONTINUOUS
 100
AcDbLine
 10
32.750000000000
 20
13.667000000000
 30
 0.0
 11
31.250000000000
 21
13.667000000000
 31
0.0
0
LINE
  5
000001cd
 39
 0.100 
 100
AcDbEntity
8
reference_cross251
 6
CONTINUOUS
 100
AcDbLine
 10
32.000000000000
 20
12.917000000000
 30
 0.0
 11
32.000000000000
 21
14.417000000000
 31
0.0
0
LINE
  5
000001ce
 39
 0.100 
 100
AcDbEntity
8
reference_cross251
 6
CONTINUOUS
 100
AcDbLine
 10
22.250000000000
 20
16.481000000000
 30
 0.0
 11
20.750000000000
 21
16.481000000000
 31
0.0
0
LINE
  5
000001cf
 39
 0.100 
 100
AcDbEntity
8
reference_cross251
 6
CONTINUOUS
 100
AcDbLine
 10
21.500000000000
 20
15.731000000000
 30
 0.0
 11
21.500000000000
 21
17.231000000000
 31
0.0
0
LINE
  5
000001d0
 39
 0.100 
 100
AcDbEntity
8
reference_cross251
 6
CONTINUOUS
 100
AcDbLine
 10
14.564000000000
 20
24.168000000000
 30
 0.0
 11
13.064000000000
 21
24.168000000000
 31
0.0
0
LINE
  5
000001d1
 39
 0.100 
 100
AcDbEntity
8
reference_cross251
 6
CONTINUOUS
 100
AcDbLine
 10
13.814000000000
 20
23.418000000000
 30
 0.0
 11
13.814000000000
 21
24.918000000000
 31
0.0
0
LINE
  5
000001d2
 39
 0.100 
 100
AcDbEntity
8
reference_cross251
 6
CONTINUOUS
 100
AcDbLine
 10
11.750000000000
 20
34.667000000000
 30
 0.0
 11
10.250000000000
 21
34.667000000000
 31
0.0
0
LINE
  5
000001d3
 39
 0.100 
 100
AcDbEntity
8
reference_cross251
 6
CONTINUOUS
 100
AcDbLine
 10
11.000000000000
 20
33.917000000000
 30
 0.0
 11
11.000000000000
 21
35.417000000000
 31
0.0
0
LINE
  5
000001d4
 39
 0.100 
 100
AcDbEntity
8
reference_cross251
 6
CONTINUOUS
 100
AcDbLine
 10
14.564000000000
 20
45.167000000000
 30
 0.0
 11
13.064000000000
 21
45.167000000000
 31
0.0
0
LINE
  5
000001d5
 39
 0.100 
 100
AcDbEntity
8
reference_cross251
 6
CONTINUOUS
 100
AcDbLine
 10
13.814000000000
 20
44.417000000000
 30
 0.0
 11
13.814000000000
 21
45.917000000000
 31
0.0
0
LINE
  5
000001d6
 39
 0.100 
 100
AcDbEntity
8
reference_cross001
 6
CONTINUOUS
 100
AcDbLine
 10
148.750000000000
 20
70.500000000000
 30
 0.0
 11
147.250000000000
 21
70.500000000000
 31
0.0
0
LINE
  5
000001d7
 39
 0.100 
 100
AcDbEntity
8
reference_cross001
 6
CONTINUOUS
 100
AcDbLine
 10
148.000000000000
 20
69.750000000000
 30
 0.0
 11
148.000000000000
 21
71.250000000000
 31
0.0
0
LINE
  5
000001d8
 39
 0.100 
 100
AcDbEntity
8
reference_cross001
 6
CONTINUOUS
 100
AcDbLine
 10
148.750000000000
 20
65.358000000000
 30
 0.0
 11
147.250000000000
 21
65.358000000000
 31
0.0
0
LINE
  5
000001d9
 39
 0.100 
 100
AcDbEntity
8
reference_cross001
 6
CONTINUOUS
 100
AcDbLine
 10
148.000000000000
 20
64.608000000000
 30
 0.0
 11
148.000000000000
 21
66.108000000000
 31
0.0
0
ENDSEC
0
SECTION
2
OBJECTS
0
DICTIONARY
5
C
330
0
100
AcDbDictionary
281
1
3
ACAD_GROUP
350
D
0
DICTIONARY
5
D
330
C
100
AcDbDictionary
281
1
0
ENDSEC
0
EOF
